Coordinates
version=1
nRows=9
nColumns=24
inDegrees=yes

Units are S.I. units (second, meters, Newtons, ...)
Angles are in degrees.

endheader
time	pelvis_tilt	pelvis_list	pelvis_rotation	pelvis_tx	pelvis_ty	pelvis_tz	hip_flexion_r	hip_adduction_r	hip_rotation_r	knee_angle_r	ankle_angle_r	subtalar_angle_r	mtp_angle_r	hip_flexion_l	hip_adduction_l	hip_rotation_l	knee_angle_l	ankle_angle_l	subtalar_angle_l	mtp_angle_l	lumbar_extension	lumbar_bending	lumbar_rotation
      0.76650000	     -4.63789011	      0.11213357	     -0.49051473	     -0.44344136	      1.05820392	      0.31188470	     17.58039031	      2.63049713	     -0.33445993	    -23.92929795	     13.09004192	     -3.61597908	      4.62553542	     22.63124025	     -5.26159137	     -7.25220315	    -71.53127929	      8.07322361	      6.63580412	      3.12758640	     -4.47102911	      2.84328403	      0.22134455
      0.77066667	     -4.58516757	      0.25133420	     -0.51823866	     -0.43789565	      1.05944128	      0.31198425	     17.00906896	      2.48959177	     -0.26497275	    -23.55265909	     13.19886074	     -3.55309372	      4.60750734	     23.04561149	     -5.12504455	     -7.36081780	    -71.03857707	      8.36546174	      7.01127178	      3.15339163	     -4.53023706	      2.68356963	      0.35654647
      0.77483333	     -4.53566585	      0.40496141	     -0.54300030	     -0.43236699	      1.06065830	      0.31204847	     16.44668378	      2.32830112	     -0.20463735	    -23.18305923	     13.26836383	     -3.51382506	      4.59647406	     23.44658123	     -4.95873929	     -7.45757554	    -70.47217944	      8.65491564	      7.39854573	      3.17666193	     -4.58624395	      2.50368568	      0.42759335
      0.77900000	     -4.47379173	      0.55323750	     -0.58521821	     -0.42682917	      1.06185914	      0.31212085	     15.86707053	      2.17580412	     -0.12136064	    -22.80278490	     13.35918563	     -3.46389933	      4.58360877	     23.81299744	     -4.80712076	     -7.57567040	    -69.84295728	      8.93222674	      7.82887218	      3.20696833	     -4.66443289	      2.34646010	      0.53724626
      0.78316667	     -4.39199287	      0.69789221	     -0.63177557	     -0.42129732	      1.06305330	      0.31218547	     15.26507084	      2.02619000	     -0.03984207	    -22.41604701	     13.44387133	     -3.41696899	      4.56876383	     24.14002309	     -4.65782471	     -7.69655407	    -69.15254981	      9.19976172	      8.25889069	      3.24320577	     -4.76110755	      2.18598657	      0.65974230
      0.78733333	     -4.34595062	      0.84716199	     -0.67954933	     -0.41575487	      1.06413615	      0.31224282	     14.70623313	      1.86975220	      0.03697326	    -22.03888938	     13.51447038	     -3.37594010	      4.55699163	     24.49077196	     -4.50283520	     -7.82007899	    -68.40679696	      9.45034540	      8.67409942	      3.27521430	     -4.81172434	      2.00206450	      0.75172617
      0.79150000	     -4.26531770	      0.96433924	     -0.73701556	     -0.41022618	      1.06522146	      0.31229900	     14.10077623	      1.75104831	      0.13912917	    -21.63686347	     13.60332273	     -3.34434267	      4.53363714	     24.79022067	     -4.38667735	     -7.94597540	    -67.61631337	      9.70081150	      9.09819618	      3.33236718	     -4.91457044	      1.87462679	      0.93054927
      0.79566667	     -4.21211139	      1.11656417	     -0.80021272	     -0.40469905	      1.06622767	      0.31234274	     13.54306467	      1.58983575	      0.22548114	    -21.27007484	     13.66524089	     -3.31471095	      4.51953085	     25.09557227	     -4.22440371	     -8.07493886	    -66.75087764	      9.92460184	      9.48989236	      3.36952422	     -4.97287383	      1.70699191	      1.01136910
      0.79983333	     -4.10541173	      1.23159061	     -0.86581519	     -0.39917452	      1.06727831	      0.31238250	     12.90922046	      1.47021959	      0.33179674	    -20.86210186	     13.74603787	     -3.28984786	      4.49386093	     25.32916866	     -4.10571423	     -8.20178674	    -65.84377129	     10.14258939	      9.86013531	      3.43050633	     -5.10888968	      1.57500448	      1.17702754
